<svg width="1200" height="630" viewBox="0 0 1200 630" xmlns="http://www.w3.org/2000/svg">
  <defs>
    <linearGradient id="bg" x1="0" y1="0" x2="1" y2="1">
      <stop offset="0%" stop-color="#030912"/>
      <stop offset="100%" stop-color="#070f1e"/>
    </linearGradient>
    <linearGradient id="accent" x1="0" y1="0" x2="1" y2="0">
      <stop offset="0%" stop-color="#4f7fff"/>
      <stop offset="100%" stop-color="#9b72ff"/>
    </linearGradient>
    <linearGradient id="chartfill" x1="0" y1="0" x2="0" y2="1">
      <stop offset="0%" stop-color="#4f7fff" stop-opacity="0.4"/>
      <stop offset="100%" stop-color="#4f7fff" stop-opacity="0"/>
    </linearGradient>
    <radialGradient id="glow1" cx="80%" cy="10%" r="50%">
      <stop offset="0%" stop-color="#4f7fff" stop-opacity="0.18"/>
      <stop offset="100%" stop-color="#4f7fff" stop-opacity="0"/>
    </radialGradient>
    <radialGradient id="glow2" cx="10%" cy="80%" r="40%">
      <stop offset="0%" stop-color="#9b72ff" stop-opacity="0.13"/>
      <stop offset="100%" stop-color="#9b72ff" stop-opacity="0"/>
    </radialGradient>
  </defs>

  <!-- Background -->
  <rect width="1200" height="630" fill="url(#bg)"/>
  <rect width="1200" height="630" fill="url(#glow1)"/>
  <rect width="1200" height="630" fill="url(#glow2)"/>

  <!-- Top accent line -->
  <rect x="0" y="0" width="1200" height="3" fill="url(#accent)"/>

  <!-- Logo icon -->
  <rect x="80" y="80" width="56" height="56" rx="14" fill="url(#accent)"/>
  <svg x="91" y="91" width="34" height="34" viewBox="0 0 200 200">
    <line x1="44" y1="60" x2="156" y2="60" stroke="rgba(255,255,255,0.3)" stroke-width="4"/>
    <line x1="44" y1="100" x2="156" y2="100" stroke="rgba(255,255,255,0.3)" stroke-width="4"/>
    <line x1="44" y1="140" x2="156" y2="140" stroke="rgba(255,255,255,0.3)" stroke-width="4"/>
    <rect x="52" y="120" width="18" height="24" rx="4" fill="#ff6b8a"/>
    <rect x="83" y="100" width="18" height="44" rx="4" fill="#6fa3ff"/>
    <rect x="114" y="76" width="18" height="68" rx="4" fill="#6fa3ff"/>
    <rect x="145" y="60" width="18" height="84" rx="4" fill="#00e676"/>
    <polyline points="61,132 92,109 123,85 154,69" fill="none" stroke="rgba(255,255,255,0.7)" stroke-width="5" stroke-linecap="round"/>
  </svg>

  <!-- Logo text -->
  <text x="150" y="118" font-family="system-ui, -apple-system, sans-serif" font-size="22" font-weight="700" fill="#e4ecf8" letter-spacing="-0.5">Trading Journal</text>

  <!-- Main headline -->
  <text x="80" y="260" font-family="system-ui, -apple-system, sans-serif" font-size="64" font-weight="800" fill="#e4ecf8" letter-spacing="-2">יומן מסחר מקצועי</text>
  <text x="80" y="340" font-family="system-ui, -apple-system, sans-serif" font-size="64" font-weight="800" letter-spacing="-2">
    <tspan fill="#6fa3ff">עקוב, נתח</tspan>
    <tspan fill="#e4ecf8"> ושפר עם AI</tspan>
  </text>

  <!-- Sub -->
  <text x="80" y="400" font-family="system-ui, -apple-system, sans-serif" font-size="26" fill="#7a9cc4" letter-spacing="-0.3">ייבא עסקאות אוטומטית · ניתוח ביצועים · חיבור לברוקר · חינמי לחלוטין</text>

  <!-- Dashboard card -->
  <rect x="740" y="100" width="400" height="430" rx="20" fill="#09152a" stroke="rgba(79,127,255,0.2)" stroke-width="1"/>
  <rect x="740" y="100" width="400" height="3" rx="1.5" fill="url(#accent)"/>

  <!-- Card header -->
  <circle cx="766" cy="130" r="6" fill="#ff5f57"/>
  <circle cx="784" cy="130" r="6" fill="#febc2e"/>
  <circle cx="802" cy="130" r="6" fill="#28c840"/>
  <text x="1108" y="135" font-family="monospace" font-size="11" fill="#3d5a7a" text-anchor="end">DASHBOARD</text>

  <!-- Metrics -->
  <rect x="756" y="152" width="112" height="60" rx="8" fill="rgba(255,255,255,0.03)" stroke="rgba(255,255,255,0.06)" stroke-width="1"/>
  <text x="768" y="171" font-family="monospace" font-size="10" fill="#3d5a7a">P&amp;L MTD</text>
  <text x="768" y="198" font-family="monospace" font-size="20" font-weight="600" fill="#00e676">+$4,320</text>

  <rect x="876" y="152" width="112" height="60" rx="8" fill="rgba(255,255,255,0.03)" stroke="rgba(255,255,255,0.06)" stroke-width="1"/>
  <text x="888" y="171" font-family="monospace" font-size="10" fill="#3d5a7a">WIN RATE</text>
  <text x="888" y="198" font-family="monospace" font-size="20" font-weight="600" fill="#4f7fff">68.1%</text>

  <rect x="996" y="152" width="112" height="60" rx="8" fill="rgba(255,255,255,0.03)" stroke="rgba(255,255,255,0.06)" stroke-width="1"/>
  <text x="1008" y="171" font-family="monospace" font-size="10" fill="#3d5a7a">TRADES</text>
  <text x="1008" y="198" font-family="monospace" font-size="20" font-weight="600" fill="#e4ecf8">47</text>

  <!-- Chart area -->
  <rect x="756" y="228" width="352" height="100" rx="8" fill="rgba(79,127,255,0.03)" stroke="rgba(255,255,255,0.06)" stroke-width="1"/>
  <path d="M756,318 C790,310 820,290 860,272 C900,254 930,268 970,248 C1010,228 1040,238 1080,224 C1108,215 1108,228 1108,228 L1108,328 L756,328Z" fill="url(#chartfill)"/>
  <path d="M756,318 C790,310 820,290 860,272 C900,254 930,268 970,248 C1010,228 1040,238 1080,224 L1108,216" fill="none" stroke="url(#accent)" stroke-width="2.5" stroke-linecap="round"/>

  <!-- Trades list -->
  <rect x="756" y="344" width="352" height="44" rx="8" fill="rgba(255,255,255,0.02)" stroke="rgba(255,255,255,0.05)" stroke-width="1"/>
  <text x="772" y="371" font-family="monospace" font-size="14" font-weight="600" fill="#e4ecf8">NVDA</text>
  <text x="840" y="371" font-family="monospace" font-size="12" fill="#3d5a7a">Long · 42d</text>
  <text x="1088" y="371" font-family="monospace" font-size="14" font-weight="600" fill="#00e676" text-anchor="end">+$1,240</text>

  <rect x="756" y="396" width="352" height="44" rx="8" fill="rgba(255,255,255,0.02)" stroke="rgba(255,255,255,0.05)" stroke-width="1"/>
  <text x="772" y="423" font-family="monospace" font-size="14" font-weight="600" fill="#e4ecf8">BTC</text>
  <text x="840" y="423" font-family="monospace" font-size="12" fill="#3d5a7a">Long · 7d</text>
  <text x="1088" y="423" font-family="monospace" font-size="14" font-weight="600" fill="#00e676" text-anchor="end">+$890</text>

  <rect x="756" y="448" width="352" height="44" rx="8" fill="rgba(255,255,255,0.02)" stroke="rgba(255,255,255,0.05)" stroke-width="1"/>
  <text x="772" y="475" font-family="monospace" font-size="14" font-weight="600" fill="#e4ecf8">TSLA</text>
  <text x="840" y="475" font-family="monospace" font-size="12" fill="#3d5a7a">Short · 3d</text>
  <text x="1088" y="475" font-family="monospace" font-size="14" font-weight="600" fill="#ff4060" text-anchor="end">-$210</text>

  <!-- AI badge -->
  <rect x="756" y="504" width="352" height="38" rx="8" fill="rgba(155,114,255,0.06)" stroke="rgba(155,114,255,0.15)" stroke-width="1"/>
  <rect x="768" y="514" width="18" height="18" rx="5" fill="url(#accent)"/>
  <text x="796" y="527" font-family="monospace" font-size="11" fill="rgba(196,167,255,0.9)">AI: win rate השתפר ב-+8%</text>

  <!-- Bottom badges -->
  <rect x="80" y="480" width="160" height="36" rx="18" fill="rgba(0,230,118,0.08)" stroke="rgba(0,230,118,0.2)" stroke-width="1"/>
  <circle cx="104" cy="498" r="5" fill="#00e676"/>
  <text x="118" y="503" font-family="system-ui, sans-serif" font-size="13" font-weight="500" fill="#00e676">ללא כרטיס אשראי</text>

  <rect x="252" y="480" width="140" height="36" rx="18" fill="rgba(79,127,255,0.08)" stroke="rgba(79,127,255,0.2)" stroke-width="1"/>
  <text x="322" y="503" font-family="system-ui, sans-serif" font-size="13" font-weight="500" fill="#6fa3ff" text-anchor="middle">הרשמה בדקה</text>

  <rect x="404" y="480" width="130" height="36" rx="18" fill="rgba(155,114,255,0.08)" stroke="rgba(155,114,255,0.2)" stroke-width="1"/>
  <text x="469" y="503" font-family="system-ui, sans-serif" font-size="13" font-weight="500" fill="#b89dff" text-anchor="middle">חינמי לחלוטין</text>
</svg>
